<svg xmlns="http://www.w3.org/2000/svg"  viewBox="0 0 24 24" width="48px" height="48px"><path d="M20,3H4C2.895,3,2,3.895,2,5v14c0,1.105,0.895,2,2,2h16c1.105,0,2-0.895,2-2V5C22,3.895,21.105,3,20,3z M20,19h-2v-2h-5v2 H4V5h16V19z" opacity=".35"/><circle cx="12" cy="9.5" r="1.5" opacity=".35"/><path d="M15.5,12.5c-0.453,0-0.84,0.059-1.17,0.158C13.832,12.256,13.061,12,12,12s-1.832,0.256-2.33,0.658 C9.34,12.559,8.953,12.5,8.5,12.5c-1.667,0-2.5,0.746-2.5,1.667V15h3h2h2h2h3v-0.833C18,13.246,17.167,12.5,15.5,12.5z" opacity=".35"/><circle cx="8" cy="11" r="1" opacity=".35"/><circle cx="16" cy="11" r="1" opacity=".35"/><path d="M4,5v14h9v-2h5v2h2V5H4z M16,10c0.552,0,1,0.448,1,1c0,0.552-0.448,1-1,1s-1-0.448-1-1C15,10.448,15.448,10,16,10z M12,8 c0.828,0,1.5,0.672,1.5,1.5S12.828,11,12,11s-1.5-0.672-1.5-1.5S11.172,8,12,8z M8,10c0.552,0,1,0.448,1,1c0,0.552-0.448,1-1,1 s-1-0.448-1-1C7,10.448,7.448,10,8,10z M18,15h-3h-2h-2H9H6v-0.833c0-0.92,0.833-1.667,2.5-1.667c0.453,0,0.84,0.059,1.17,0.158 C10.168,12.256,10.939,12,12,12s1.832,0.256,2.33,0.658c0.33-0.099,0.716-0.158,1.17-0.158c1.667,0,2.5,0.746,2.5,1.667V15z"/></svg>